<?xml version="1.0" encoding="utf-8"?>
<!-- Generator: Adobe Illustrator 26.3.1, SVG Export Plug-In . SVG Version: 6.00 Build 0)  -->
<svg version="1.1" id="Слой_1" xmlns="http://www.w3.org/2000/svg" xmlns:xlink="http://www.w3.org/1999/xlink" x="0px" y="0px"
	 viewBox="0 0 800 800" style="enable-background:new 0 0 800 800;" xml:space="preserve">
<style type="text/css">
	.st0{fill:#D9D9D9;}
	.st1{fill:#5C5C5C;}
	.st2{fill:#2E2F2F;}
	.st3{fill:#FFFFFF;}
</style>
<g>
	<path class="st0" d="M454.2,611H347v2.8h107.2V611z"/>
	<path class="st1" d="M370.9,614.8v1.4c0,0.8-0.7,1.5-1.5,1.5h-20.8c-0.8,0-1.5-0.7-1.5-1.5v-1.4H370.9z"/>
	<path class="st1" d="M454.2,614.8v1.4c0,0.8-0.7,1.5-1.5,1.5H432c-0.8,0-1.5-0.7-1.5-1.5v-1.4H454.2z"/>
	<path class="st2" d="M665,181.4H135.2c-4.2,0-7.7,3.4-7.7,7.7v309.4c0,4.2,3.5,7.7,7.7,7.7h210.9v107.6v2.4c0,1.4,1.1,2.5,2.5,2.5
		h20.8c1.4,0,2.5-1.1,2.5-2.5v-1.4h57.5v1.4c0,1.4,1.1,2.5,2.5,2.5h20.8c1.4,0,2.5-1.1,2.5-2.5v-110h209.7c4.2,0,7.7-3.4,7.7-7.7
		V189.1C672.7,184.8,669.2,181.4,665,181.4z M370.9,616.2c0,0.8-0.7,1.5-1.5,1.5h-20.8c-0.8,0-1.5-0.7-1.5-1.5v-1.4h23.8V616.2z
		 M454.2,616.2c0,0.8-0.7,1.5-1.5,1.5H432c-0.8,0-1.5-0.7-1.5-1.5v-1.4h23.8V616.2z M454.2,613.8H347V611h107.2V613.8z M454.2,610
		H347V506.1h35.1c0.2,2.8,2,16.4,18.5,16.4s18.3-13.6,18.5-16.4h35.1V610L454.2,610z M383.1,506.1h35c-0.2,2.7-1.8,15.4-17.5,15.4
		C384.9,521.5,383.2,508.9,383.1,506.1z M671.7,498.5c0,3.7-3,6.7-6.7,6.7H135.2c-3.7,0-6.7-3-6.7-6.7V189.1c0-3.7,3-6.7,6.7-6.7
		h529.7c3.7,0,6.7,3,6.7,6.7L671.7,498.5L671.7,498.5z"/>
	<path class="st0" d="M454.2,506.1V610H347V506.1h35.1c0.2,2.8,2,16.4,18.5,16.4s18.3-13.6,18.5-16.4H454.2z"/>
	<path class="st0" d="M665,182.4H135.2c-3.7,0-6.7,3-6.7,6.7v309.4c0,3.7,3,6.7,6.7,6.7h529.7c3.7,0,6.7-3,6.7-6.7V189.1
		C671.7,185.4,668.7,182.4,665,182.4z M654.5,490.1h-509V197.4h509V490.1z"/>
	<path class="st2" d="M145.6,197.4v292.9h509V197.4H145.6z M653.5,489.1h-507V198.4h507V489.1z"/>
	<path class="st3" d="M653.5,198.4h-507v290.9h507V198.4z"/>
</g>
</svg>
