<?xml version="1.0" encoding="UTF-8"?>
<svg id="Layer_1" data-name="Layer 1" xmlns="http://www.w3.org/2000/svg" viewBox="0 0 815.99 949.54">
  <defs>
    <style>
      .cls-1, .cls-2 {
        stroke-linejoin: round;
      }

      .cls-1, .cls-2, .cls-3, .cls-4, .cls-5 {
        stroke: #ffffff;
        stroke-width: 24px;
      }

      .cls-1, .cls-2, .cls-4, .cls-5 {
        fill: none;
      }

      .cls-1, .cls-4 {
        stroke-linecap: round;
      }

      .cls-3, .cls-4, .cls-5 {
        stroke-miterlimit: 10;
      }

      .cls-3, .cls-6 {
        fill: #ffffff;
      }
    </style>
  </defs>
  <path class="cls-2" d="M619.46,175.51s17.78-37.34,3.05-61.46c-14.73-24.13-37.08-47.75-87.37-43.18,0,0-19.3,3.3-34.03,17.27,0,0-11.43-48-45.97-63.5,0,0-51.3-30.99-106.67,4.06,0,0-30.22,16.76-33.02,53.84,0,0-58.85-33.35-92.78-2-2.31,2.14-4.79,4.08-7.34,5.93-9.46,6.91-31.49,27.75-24.95,68.74.7,4.41,1.74,9.05,3.15,13.93,0,0-82.8,45.72-99.56,183.37,0,0-6.1,58.42-22.86,88.13,0,0-38.35,68.07-40.13,116.07,0,0-5.33,38.61,20.32,81.27,0,0-12.51,56.16,4.49,94.89,0,0,20.47,44.27,58.45,56.72,0,0,37.98,109.89,141.96,89.03,0,0,137.29,130.73,299.48,2.63,0,0,98.37,14.18,138.22-86.69,0,0,100.24-26.77,73.16-160.64,0,0,48.88-80.01-43.27-230.68,0,0,14.54-147.34-104.34-227.77Z"/>
  <path class="cls-5" d="M93.97,352.53C-23.13,294.63,19.61,197.5,19.61,197.5c0,0,52.41-118.02,173.92-28.34"/>
  <path class="cls-3" d="M111.54,278.48s-39.95-13.42-23.14-43.62c0,0,13.15-29.92,48.29-7.02"/>
  <path class="cls-1" d="M166.78,190.56s-23.89,77.92,43.04,91.62c0,0,66.62,11.34,100.86-62.97,0,0,27.08,52.08,80.32,53.01,0,0,56.35,1.69,69.73-53.01,0,0,22.73,42.74,77.21,47.09,0,0,45.45,2.18,66.62-34.24"/>
  <path class="cls-4" d="M626.58,159.29s98.77-76.35,163.52,33.23c0,0,49.81,94.95-39.23,141.34l-29.74,11.28"/>
  <path class="cls-3" d="M701.58,275.38s38.09-2.23,23.77-43.63c0,0-21.38-27.71-48.2,0"/>
  <ellipse class="cls-6" cx="246.71" cy="439.7" rx="41.87" ry="47.94"/>
  <ellipse class="cls-6" cx="568.48" cy="439.7" rx="41.87" ry="47.94"/>
  <path class="cls-4" d="M291.69,645.17s111.76,96.51,228.5,0"/>
  <path class="cls-5" d="M51.3,638.01s45.51,36.42,84.43,32.69,64.13-51.05,64.13-51.05c0,0,19.92-33.62,60.08-41.4,40.16-7.78,148.63-43.31,148.63-43.31"/>
  <path class="cls-5" d="M408.57,534.93s136.22,32.1,166.42,52.65,68.18,76.81,100.55,83.39c32.38,6.58,91.53-37,91.53-37"/>
  <path class="cls-5" d="M353.18,381.17s-.16,5.91-4.21,59.45c-4.05,53.53-50.43,86.24-50.43,86.24,0,0-64.75,18.68-125.15,8.06-60.39-10.62-62.91-41.37-62.91-41.37-15.59-34.24-10.25-101.49-10.56-125.77-.31-24.28,18.68-20.55,18.68-20.55l179.32-3.74c54.79-5.29,55.26,37.67,55.26,37.67.29-.1.59-.21.88-.31,49.16-16.92,105.94.66,105.94.66,0,0-1.21-37.4,43.47-37.4s146.06-2.78,178.46,3.7c0,0,30.79-1.16,31.94,29.63,1.16,30.79,3.93,91.2-11.57,115.73s-20.37,38.15-65.27,45-98.61-.79-119.9-7.5c-21.3-6.71-43.05-50.88-43.05-50.88,0,0-12.9-32.92-12.96-65.78s-2.06-32.84-2.06-32.84"/>
  <path class="cls-5" d="M110.37,347.94s-37.37-4.95-38.35,15.85c-.98,20.8,2.94,28.24,27.46,30.82"/>
  <path class="cls-5" d="M99.84,378.22s8.04-29.59,38.12-30.8"/>
  <path class="cls-5" d="M442.43,377.29s17.18,12.61,18.66,24.13"/>
  <path class="cls-5" d="M368.94,376.77s-15.78,6.21-16.73,19.61"/>
  <path class="cls-5" d="M671.88,346.33s62.53,2.78,67.82,10.18,10.9,18.6,2.33,25.84c-8.56,7.24-27.67,8.73-27.67,8.73"/>
  <path class="cls-5" d="M671.88,346.33s39.99,8.49,42.39,41.79"/>
  <ellipse class="cls-6" cx="408.57" cy="534.93" rx="47.22" ry="72.56" transform="translate(-146.2 916.12) rotate(-87.12)"/>
</svg>